<svg width="24" height="24" viewBox="0 0 24 24" fill="none" xmlns="http://www.w3.org/2000/svg">
<g clip-path="url(#clip0_17_1390)">
<path d="M16.0413 1.5C16.0902 1.5 16.139 1.5 16.1907 1.5C16.3105 2.98096 15.7453 4.08754 15.0583 4.88888C14.3842 5.68469 13.4611 6.45653 11.9682 6.33942C11.8686 4.87966 12.4348 3.85516 13.1208 3.05566C13.7571 2.31057 14.9236 1.64754 16.0413 1.5Z" fill="black"/>
<path d="M20.5607 16.9146C20.5607 16.9293 20.5607 16.9422 20.5607 16.9561C20.1411 18.2268 19.5427 19.3158 18.8123 20.3265C18.1456 21.244 17.3286 22.4788 15.8698 22.4788C14.6092 22.4788 13.7719 21.6682 12.48 21.6461C11.1133 21.624 10.3618 22.3239 9.1123 22.5C8.96936 22.5 8.82643 22.5 8.68627 22.5C7.76873 22.3672 7.02825 21.6406 6.4888 20.9858C4.8981 19.0512 3.66888 16.5522 3.44019 13.3542C3.44019 13.0406 3.44019 12.728 3.44019 12.4145C3.53701 10.1258 4.64912 8.26486 6.12731 7.36301C6.90745 6.88349 7.9799 6.47498 9.17408 6.65756C9.68587 6.73687 10.2087 6.91208 10.667 7.08544C11.1014 7.25235 11.6445 7.54836 12.1591 7.53268C12.5076 7.52254 12.8544 7.34087 13.2057 7.2127C14.2348 6.84107 15.2436 6.41504 16.5734 6.61515C18.1714 6.85675 19.3057 7.5668 20.0065 8.66231C18.6546 9.52267 17.5859 10.8192 17.7685 13.0333C17.9308 15.0445 19.1 16.2211 20.5607 16.9146Z" fill="black"/>
</g>
<defs>
<clipPath id="clip0_17_1390">
<rect width="21" height="21" fill="white" transform="translate(1.5 1.5)"/>
</clipPath>
</defs>
</svg>
