<svg width="25" height="24" viewBox="0 0 25 24" fill="none" xmlns="http://www.w3.org/2000/svg">
<path fill-rule="evenodd" clip-rule="evenodd" d="M23 12.2387C23 11.4941 22.9318 10.7782 22.8052 10.0909H12.7143V14.1526H18.4805C18.2321 15.4651 17.4773 16.5771 16.3425 17.3217V19.9562H19.8052C21.8312 18.1283 23 15.4364 23 12.2387Z" fill="#4285F4"/>
<path fill-rule="evenodd" clip-rule="evenodd" d="M12.7139 22.5C15.6067 22.5 18.0325 21.5599 19.8052 19.9562L16.3425 17.3217C15.3831 17.9517 14.1554 18.3238 12.7139 18.3238C9.92327 18.3238 7.56126 16.4768 6.71873 13.995H3.13918V16.7154C4.90217 20.147 8.52555 22.5 12.7139 22.5Z" fill="#34A853"/>
<path fill-rule="evenodd" clip-rule="evenodd" d="M6.71873 13.995C6.50444 13.365 6.38312 12.692 6.38312 12C6.38312 11.3079 6.50488 10.635 6.71916 10.005V7.28449H3.13961C2.41396 8.702 2 10.3056 2 12C2 13.6943 2.41353 15.2979 3.13918 16.7154L6.71873 13.995Z" fill="#FBBC05"/>
<path fill-rule="evenodd" clip-rule="evenodd" d="M12.7139 5.67615C14.2869 5.67615 15.6993 6.20593 16.8096 7.24639L19.8827 4.23478C18.0272 2.54046 15.6019 1.5 12.7139 1.5C8.52555 1.5 4.9026 3.85289 3.13961 7.28449L6.71916 10.005C7.56169 7.52313 9.92327 5.67615 12.7139 5.67615Z" fill="#EA4335"/>
</svg>
