<svg width="24" height="24" viewBox="0 0 24 24" fill="none" xmlns="http://www.w3.org/2000/svg">
<g id="UserList">
<path id="Vector" d="M13.5 7.50002C13.5 7.30111 13.579 7.11034 13.7197 6.96969C13.8603 6.82904 14.0511 6.75002 14.25 6.75002H23.25C23.4489 6.75002 23.6397 6.82904 23.7803 6.96969C23.921 7.11034 24 7.30111 24 7.50002C24 7.69893 23.921 7.8897 23.7803 8.03035C23.6397 8.171 23.4489 8.25002 23.25 8.25002H14.25C14.0511 8.25002 13.8603 8.171 13.7197 8.03035C13.579 7.8897 13.5 7.69893 13.5 7.50002ZM23.25 11.25H14.25C14.0511 11.25 13.8603 11.329 13.7197 11.4697C13.579 11.6103 13.5 11.8011 13.5 12C13.5 12.1989 13.579 12.3897 13.7197 12.5304C13.8603 12.671 14.0511 12.75 14.25 12.75H23.25C23.4489 12.75 23.6397 12.671 23.7803 12.5304C23.921 12.3897 24 12.1989 24 12C24 11.8011 23.921 11.6103 23.7803 11.4697C23.6397 11.329 23.4489 11.25 23.25 11.25ZM23.25 15.75H16.5C16.3011 15.75 16.1103 15.829 15.9697 15.9697C15.829 16.1103 15.75 16.3011 15.75 16.5C15.75 16.6989 15.829 16.8897 15.9697 17.0304C16.1103 17.171 16.3011 17.25 16.5 17.25H23.25C23.4489 17.25 23.6397 17.171 23.7803 17.0304C23.921 16.8897 24 16.6989 24 16.5C24 16.3011 23.921 16.1103 23.7803 15.9697C23.6397 15.829 23.4489 15.75 23.25 15.75ZM14.2266 17.8125C14.2511 17.9079 14.2566 18.0072 14.2427 18.1048C14.2288 18.2023 14.1959 18.2962 14.1457 18.3809C14.0956 18.4657 14.0292 18.5398 13.9504 18.599C13.8717 18.6581 13.782 18.7012 13.6866 18.7256C13.6254 18.7421 13.5624 18.7503 13.4991 18.75C13.3327 18.7501 13.1711 18.6949 13.0396 18.5931C12.908 18.4912 12.8141 18.3486 12.7725 18.1875C12.195 15.9431 9.92813 14.25 7.49906 14.25C5.07 14.25 2.80313 15.9422 2.22563 18.1875C2.1759 18.3802 2.05166 18.5453 1.88024 18.6464C1.70882 18.7475 1.50426 18.7763 1.31156 18.7266C1.11887 18.6769 0.953818 18.5526 0.852724 18.3812C0.75163 18.2098 0.722773 18.0052 0.772501 17.8125C1.29656 15.7772 2.82 14.1291 4.75313 13.3125C4.00878 12.7392 3.46255 11.9473 3.19105 11.0478C2.91954 10.1484 2.93638 9.18648 3.2392 8.29707C3.54202 7.40766 4.11563 6.63535 4.87958 6.08843C5.64354 5.54152 6.55952 5.24744 7.49906 5.24744C8.43861 5.24744 9.35459 5.54152 10.1185 6.08843C10.8825 6.63535 11.4561 7.40766 11.7589 8.29707C12.0617 9.18648 12.0786 10.1484 11.8071 11.0478C11.5356 11.9473 10.9893 12.7392 10.245 13.3125C12.1791 14.1291 13.7025 15.7772 14.2266 17.8125ZM7.5 12.75C8.09335 12.75 8.67336 12.5741 9.16671 12.2444C9.66006 11.9148 10.0446 11.4462 10.2716 10.8981C10.4987 10.3499 10.5581 9.74669 10.4424 9.16475C10.3266 8.58281 10.0409 8.04826 9.62132 7.6287C9.20176 7.20914 8.66722 6.92342 8.08527 6.80766C7.50333 6.69191 6.90013 6.75132 6.35195 6.97838C5.80377 7.20545 5.33524 7.58996 5.00559 8.08331C4.67595 8.57666 4.5 9.15668 4.5 9.75002C4.5 10.5457 4.81607 11.3087 5.37868 11.8713C5.94129 12.434 6.70435 12.75 7.5 12.75Z" fill="#8B8E93"/>
</g>
</svg>
