<svg width="24" height="24" viewBox="0 0 24 24" fill="none" xmlns="http://www.w3.org/2000/svg">
<g id="UserList">
<path id="Vector" d="M13.5 7.50002C13.5 7.30111 13.579 7.11034 13.7197 6.96969C13.8603 6.82904 14.0511 6.75002 14.25 6.75002H23.25C23.4489 6.75002 23.6397 6.82904 23.7803 6.96969C23.921 7.11034 24 7.30111 24 7.50002C24 7.69893 23.921 7.8897 23.7803 8.03035C23.6397 8.171 23.4489 8.25002 23.25 8.25002H14.25C14.0511 8.25002 13.8603 8.171 13.7197 8.03035C13.579 7.8897 13.5 7.69893 13.5 7.50002ZM23.25 11.25H14.25C14.0511 11.25 13.8603 11.329 13.7197 11.4697C13.579 11.6103 13.5 11.8011 13.5 12C13.5 12.1989 13.579 12.3897 13.7197 12.5304C13.8603 12.671 14.0511 12.75 14.25 12.75H23.25C23.4489 12.75 23.6397 12.671 23.7803 12.5304C23.921 12.3897 24 12.1989 24 12C24 11.8011 23.921 11.6103 23.7803 11.4697C23.6397 11.329 23.4489 11.25 23.25 11.25ZM23.25 15.75H16.5C16.3011 15.75 16.1103 15.829 15.9697 15.9697C15.829 16.1103 15.75 16.3011 15.75 16.5C15.75 16.6989 15.829 16.8897 15.9697 17.0304C16.1103 17.171 16.3011 17.25 16.5 17.25H23.25C23.4489 17.25 23.6397 17.171 23.7803 17.0304C23.921 16.8897 24 16.6989 24 16.5C24 16.3011 23.921 16.1103 23.7803 15.9697C23.6397 15.829 23.4489 15.75 23.25 15.75ZM10.2459 13.3125C10.9903 12.7392 11.5365 11.9473 11.808 11.0478C12.0795 10.1484 12.0627 9.18648 11.7599 8.29707C11.4571 7.40766 10.8834 6.63535 10.1195 6.08843C9.35554 5.54152 8.43956 5.24744 7.50001 5.24744C6.56047 5.24744 5.64449 5.54152 4.88053 6.08843C4.11658 6.63535 3.54297 7.40766 3.24015 8.29707C2.93733 9.18648 2.92049 10.1484 3.192 11.0478C3.4635 11.9473 4.00973 12.7392 4.75407 13.3125C2.82095 14.131 1.29751 15.7781 0.773449 17.8125C0.744826 17.9234 0.741963 18.0393 0.765082 18.1515C0.7882 18.2636 0.836686 18.369 0.906822 18.4594C0.976959 18.5499 1.06688 18.6232 1.16971 18.6736C1.27253 18.7239 1.38552 18.7501 1.50001 18.75H13.5C13.6145 18.7501 13.7275 18.7239 13.8303 18.6736C13.9331 18.6232 14.0231 18.5499 14.0932 18.4594C14.1633 18.369 14.2118 18.2636 14.2349 18.1515C14.2581 18.0393 14.2552 17.9234 14.2266 17.8125C13.7025 15.7772 12.1791 14.13 10.2459 13.3125Z" fill="#FFC844"/>
</g>
</svg>
